<svg width="333" height="329" viewBox="0 0 333 329" fill="none" xmlns="http://www.w3.org/2000/svg">
<path d="M315.1 308.258L24.9468 307.598C24.4043 307.6 23.9358 307.076 23.9317 306.462C23.9276 305.848 24.3891 305.32 24.9316 305.318L315.085 305.977C315.627 305.975 316.096 306.499 316.1 307.113C316.104 307.727 315.642 308.255 315.1 308.258Z" fill="black"/>
<path d="M50.3399 252.165C52.5743 282.79 58.4807 305.211 58.5196 305.443L293.405 305.355C293.482 305.123 299.349 283.176 301.763 253.716C303.181 236.411 303.128 219.919 301.604 204.741C299.69 185.731 295.492 168.732 289.089 154.131C281.871 137.672 265.167 123.644 240.799 113.675L102.693 111.168C83.5294 119.399 70.566 131.274 64.1892 146.523C57.5033 162.468 53.0269 180.738 50.9145 200.83C49.2246 216.895 49.0074 234.162 50.3399 252.165Z" fill="#FFAD33"/>
<path d="M148.742 220.623C148.742 220.623 144.022 229.495 138.369 224.713C132.717 219.931 120.708 209.516 112.691 217.512C104.674 225.509 104.85 227.875 97.623 224.498C90.3964 221.121 67.8716 238.234 84.7551 252.969C112.439 277.117 162.392 237.238 162.392 237.238L158.804 229.612L148.742 220.623Z" fill="black"/>
<path d="M107.004 261.313C98.0664 261.359 90.4594 258.721 84.3767 253.398C77.5143 247.419 76.1719 239.937 80.6767 232.968C84.876 226.466 93.5422 221.92 97.855 223.954C103.334 226.564 104.024 225.823 108.508 220.988C109.582 219.857 110.77 218.571 112.266 217.088C120.551 208.819 132.675 219.116 138.523 224.092L138.757 224.284C140.004 225.326 141.284 225.746 142.559 225.506C145.804 224.869 148.203 220.433 148.241 220.355L148.583 219.693L159.308 229.261L163.132 237.39L162.786 237.663C162.671 237.78 150.067 247.779 134.225 254.652C124.896 258.697 116.287 260.954 108.628 261.227C108.049 261.307 107.507 261.31 107.004 261.313ZM95.3845 224.626C91.4379 224.647 85.1615 228.133 81.6494 233.584C79.2061 237.36 76.3699 244.864 85.104 252.502C99.1797 264.768 119.257 259.891 133.674 253.607C147.897 247.402 159.467 238.689 161.659 237.048L158.308 229.964L148.87 221.516C148.031 222.878 145.775 226.033 142.762 226.592C141.101 226.911 139.51 226.415 137.99 225.142L137.756 224.949C132.182 220.205 120.604 210.371 113.086 217.899C111.59 219.381 110.401 220.668 109.366 221.76C104.843 226.634 103.616 227.921 97.3608 224.965C96.7397 224.736 96.0809 224.623 95.3845 224.626Z" fill="black"/>
<path d="M104.209 306.808C104.209 306.808 95.5832 232.034 170.055 234.247C268.564 237.189 236.623 306.12 236.623 306.12L104.209 306.808Z" fill="white"/>
<path d="M237.093 306.893L103.52 307.587L103.436 306.889C102.876 300.373 103.051 293.814 103.962 287.328C105.343 277.154 109.124 262.66 119.435 251.43C130.934 238.875 147.947 232.849 170.087 233.51C203.877 234.499 226.166 243.347 236.293 259.787C243.005 270.618 242.918 282.764 241.675 291.037C240.909 296.357 239.445 301.565 237.322 306.504L237.093 306.893ZM104.899 306.028L236.073 305.346C237.513 301.885 246.407 279.098 234.946 260.531C225.093 244.594 203.232 235.977 170.022 235.024C148.385 234.36 131.759 240.229 120.566 252.433C102.935 271.695 104.508 301.14 104.899 306.028Z" fill="#1D1D1B"/>
<path d="M216.365 243.61C216.365 243.61 247.72 255.39 252.978 286.772C260.724 333.111 219.909 330.571 210.056 321.51C200.203 312.449 181.492 297.578 179.783 287.815C178.075 278.052 184.462 275.071 184.462 275.071L181.696 268.067L203.395 253.528L206.252 257.74C206.252 257.74 216.199 255.477 220.404 263.676C224.609 271.875 229.262 282.67 232.122 287.269" fill="white"/>
<path d="M227.529 327.39C219.996 327.43 212.983 325.023 209.634 321.939C207.998 320.435 206.09 318.739 204.066 316.965C193.632 307.713 180.629 296.225 179.165 287.896C177.661 279.411 182.188 275.781 183.724 274.804L181.156 268.264C181.038 267.993 181.151 267.721 181.382 267.564L203.081 253.025C203.349 252.83 203.698 252.906 203.893 253.176L206.516 257.079C208.444 256.759 217.051 255.86 220.903 263.402C222.632 266.767 224.442 270.557 226.174 274.232C228.615 279.416 230.937 284.29 232.583 286.996C232.74 287.266 232.627 287.616 232.358 287.772C232.089 287.929 231.779 287.853 231.584 287.582C229.899 284.838 227.576 279.925 225.097 274.742C223.366 271.106 221.594 267.315 219.865 263.95C215.934 256.254 206.449 258.281 206.372 258.321C206.14 258.361 205.908 258.284 205.752 258.091L203.247 254.343L182.431 268.296L185 274.875C185.118 275.145 184.967 275.495 184.697 275.613C184.467 275.73 178.696 278.514 180.322 287.696C181.744 295.638 195.098 307.473 204.831 316.108C206.856 317.881 208.763 319.578 210.399 321.081C215.54 325.824 229.938 328.929 240.741 323.055C248.123 319.061 256.113 309.519 252.361 286.892C249.71 270.89 239.996 260.122 232.332 253.958C224.006 247.215 216.215 244.231 216.138 244.232C215.828 244.117 215.709 243.769 215.822 243.458C215.935 243.186 216.243 243.029 216.553 243.144C216.631 243.182 224.576 246.204 233.058 253.062C240.878 259.381 250.787 270.381 253.519 286.77C257.393 310.055 249.019 319.949 241.33 324.138C237.023 326.371 232.164 327.366 227.529 327.39Z" fill="#1D1D1B"/>
<path d="M185.101 275.29C185.101 275.29 201.628 273.303 205.941 258.194L203.275 253.942L182.449 268.207L185.101 275.29Z" fill="#E89D00"/>
<path d="M137.163 239.618C137.163 239.618 104.038 254.721 101.335 285.641C97.226 332.389 136.961 331.056 146.692 321.893C156.422 312.729 174.792 297.665 176.367 287.885C177.942 278.104 171.466 275.191 171.466 275.191L174.109 268.159L152.121 253.849L149.338 258.09C149.338 258.09 139.354 255.932 135.293 264.174C131.232 272.416 126.769 283.258 123.99 287.887" fill="white"/>
<path d="M130.788 327.521C125.999 327.585 121.277 326.563 116.933 324.491C111.347 321.767 107.099 317.408 104.304 311.528C101.038 304.682 99.8418 295.963 100.755 285.566C102.158 269.427 111.943 257.626 119.877 250.566C125.013 246.002 130.734 242.094 136.926 239.037C137.195 238.881 137.544 238.995 137.701 239.266C137.858 239.537 137.745 239.886 137.476 240.043C137.437 240.043 137.438 240.082 137.399 240.082C131.322 243.1 125.678 246.929 120.619 251.415C112.838 258.32 103.282 269.848 101.914 285.599C99.8063 309.535 109.201 319.336 117.425 323.364C128.753 328.928 141.665 325.719 146.262 321.352C147.871 319.831 149.748 318.115 151.741 316.321C161.36 307.584 174.504 295.65 175.786 287.655C177.25 278.418 171.277 275.619 171.2 275.619C170.928 275.504 170.771 275.156 170.884 274.884L173.337 268.279L152.282 254.662L149.843 258.397C149.729 258.592 149.459 258.709 149.227 258.633C148.84 258.558 139.63 256.667 135.835 264.404C134.166 267.786 132.46 271.556 130.793 275.249C128.406 280.496 126.17 285.433 124.533 288.156C124.381 288.428 124.034 288.546 123.763 288.393C123.491 288.239 123.372 287.89 123.524 287.618C123.524 287.618 123.524 287.579 123.562 287.579C125.161 284.895 127.397 279.998 129.785 274.789C131.452 271.096 133.195 267.287 134.865 263.905C138.623 256.323 147.205 257.131 149.139 257.431L151.693 253.502C151.883 253.229 152.23 253.15 152.502 253.342L174.452 267.652C174.685 267.806 174.765 268.077 174.69 268.349L172.237 274.915C173.79 275.877 178.379 279.42 177.025 287.958C175.707 296.302 162.908 307.925 152.638 317.286C150.645 319.08 148.806 320.796 147.159 322.317C143.748 325.437 137.547 327.486 130.788 327.521Z" fill="#1D1D1B"/>
<path d="M170.905 275.386C170.905 275.386 154.345 273.572 149.768 258.509L152.397 254.229L173.471 268.275L170.905 275.386Z" fill="#E89D00"/>
<path d="M159.724 186.845C159.377 186.847 159.066 186.616 158.986 186.267C156.313 176.124 166.299 171.341 166.414 171.302C166.798 171.106 167.263 171.298 167.459 171.684C167.655 172.071 167.466 172.537 167.082 172.694C166.698 172.851 158.172 176.967 160.486 185.833C160.606 186.259 160.34 186.687 159.955 186.766C159.878 186.805 159.801 186.845 159.724 186.845Z" fill="#1D1D1B"/>
<path d="M178.206 205.503C186.657 205.459 193.447 198.548 193.373 190.067C193.299 181.586 186.387 174.746 177.936 174.79C169.485 174.835 162.695 181.746 162.769 190.227C162.844 198.708 169.755 205.548 178.206 205.503Z" fill="black"/>
<path d="M178.214 206.085L177.982 206.086C169.21 206.055 162.114 198.917 162.076 190.153C162.076 181.35 169.163 174.254 177.935 174.247L178.167 174.246C186.939 174.278 194.035 181.415 194.074 190.218C194.073 198.983 186.987 206.117 178.214 206.085ZM177.945 175.411C169.83 175.376 163.241 182.003 163.274 190.147C163.268 198.291 169.896 204.926 178.011 204.923L178.243 204.922C186.28 204.841 192.754 198.369 192.799 190.302C192.844 182.158 186.293 175.483 178.177 175.409L177.945 175.411Z" fill="#1D1E1B"/>
<path d="M193.242 196.56C187.035 185.344 169.81 187.568 165.446 192.439C154.61 204.558 144.004 198.679 142.031 211.761C141.044 218.321 146.828 220.889 144.149 232.888C142.735 239.101 153.18 248.666 162.653 248.772C172.127 248.877 204.377 249.523 207.022 242.567C209.668 235.61 220.198 224.035 211.576 210.699C202.874 197.208 195.952 201.433 193.242 196.56Z" fill="black"/>
<path d="M172.056 249.381C169.349 249.395 166.643 249.371 163.975 249.346L162.699 249.314C156.048 249.232 149.553 244.806 146.308 240.673C144.079 237.853 143.165 235.026 143.686 232.735C145.249 225.784 143.941 222.145 142.753 218.893C141.921 216.648 141.168 214.48 141.568 211.646C142.7 204.077 146.669 202.544 151.717 200.617C155.763 199.083 160.387 197.313 165.096 192.014C167.815 189.013 174.449 187.272 180.526 187.977C186.563 188.682 191.267 191.605 193.82 196.208C194.724 197.871 196.197 198.329 198.252 199.016C201.781 200.161 206.628 201.765 212.154 210.308C219.131 221.132 213.879 230.739 210.075 237.779C209.161 239.374 208.363 241.008 207.644 242.679C205.526 248.12 188.796 249.294 172.056 249.381ZM177.558 189.04C172.339 189.067 167.715 190.836 165.915 192.863C160.976 198.357 156.044 200.245 152.075 201.778C147.22 203.627 143.675 205.003 142.653 211.873C142.288 214.396 142.962 216.332 143.755 218.539C144.983 221.946 146.37 225.778 144.733 233.04C144.286 234.981 145.158 237.459 147.152 240.009C150.241 243.91 156.387 248.144 162.65 248.189L163.926 248.221C173.864 248.325 204.062 248.671 206.442 242.375C207.162 240.626 207.997 238.954 208.95 237.32C212.641 230.552 217.701 221.255 211.078 211.05C205.787 202.855 201.172 201.328 197.799 200.26C195.667 199.572 193.844 198.961 192.705 196.912C190.348 192.658 185.955 189.927 180.305 189.258C179.414 189.069 178.486 189.035 177.558 189.04Z" fill="#1D1E1B"/>
<path d="M183.365 222.118C175.553 223.362 165.295 219.45 163.343 222.103C161.391 224.757 162.625 228.559 166.74 229.704C170.855 230.849 175.038 230.945 183.594 230.668C192.15 230.391 200.508 229.57 199.732 224.949C198.956 220.327 194.851 220.271 183.365 222.118Z" fill="#FFB49F"/>
<path d="M178.939 199.543C175.84 211.657 163.646 217.111 156.97 217.65C155.496 221.342 156.197 226.34 156.196 230.683C156.104 246.659 164.702 258.286 179.986 257.391C194.923 256.499 202.804 248.004 202.727 230.4C202.69 226.251 202.886 222.14 201.58 218.541C188.913 218.413 178.939 199.543 178.939 199.543Z" fill="#FFCDB2"/>
<path d="M178.524 258.058C172.539 258.089 167.348 256.139 163.453 252.398C158.352 247.539 155.582 239.837 155.617 230.686C155.608 229.6 155.598 228.476 155.549 227.352C155.442 223.901 155.294 220.296 156.466 217.42L156.618 217.109L156.965 217.069C164.142 216.488 175.56 210.612 178.435 199.391L178.808 197.954L179.515 199.269C179.632 199.462 189.486 217.829 201.651 217.998L202.037 217.996L202.156 218.383C203.343 221.634 203.337 225.356 203.33 228.963C203.335 229.467 203.339 229.932 203.343 230.436C203.382 239.238 201.395 246.034 197.457 250.591C193.596 255.071 187.749 257.544 180.03 258.011C179.528 258.053 179.026 258.055 178.524 258.058ZM157.4 218.23C156.458 220.833 156.602 224.128 156.708 227.346C156.756 228.47 156.805 229.633 156.776 230.719C156.738 239.56 159.39 246.952 164.218 251.58C168.229 255.398 173.651 257.231 179.942 256.849C194.917 255.956 202.178 247.31 202.108 230.442C202.103 229.938 202.099 229.434 202.095 228.969C202.102 225.44 202.112 222.144 201.121 219.164C190.227 218.678 181.536 205.23 179.067 201.055C175.497 212.319 164.19 217.496 157.4 218.23Z" fill="#1D1D1B"/>
<path d="M181.778 223.055C172.458 224.658 160.181 220.057 157.924 223.294C155.668 226.532 157.101 231.033 162.069 232.329C167.037 233.625 171.995 233.677 182.177 233.314C192.358 232.951 202.301 231.773 201.362 226.298C200.424 220.822 195.427 220.692 181.778 223.055Z" fill="#FFB49F"/>
<path d="M178.915 237.268C178.613 237.27 178.346 237 178.344 236.69L178.426 224.132C178.423 223.822 178.685 223.549 178.987 223.547C179.289 223.546 179.555 223.816 179.558 224.126L179.476 236.684C179.479 236.994 179.254 237.266 178.915 237.268Z" fill="black"/>
<path d="M167.571 185.985C167.455 185.986 167.3 185.948 167.184 185.91C166.717 185.679 166.48 185.099 166.708 184.632C166.822 184.36 169.973 177.632 178.634 177.16C179.175 177.118 179.643 177.543 179.647 178.086C179.652 178.629 179.269 179.096 178.728 179.099C171.266 179.526 168.57 185.204 168.456 185.476C168.304 185.787 167.958 186.022 167.571 185.985Z" fill="white"/>
<path d="M176.964 244.065C176.422 244.068 175.88 243.993 175.376 243.879C172.234 243.042 170.465 239.908 170.386 239.753C170.229 239.482 170.303 239.132 170.572 238.937C170.842 238.78 171.191 238.856 171.387 239.127L171.387 239.166C171.426 239.204 172.998 241.99 175.675 242.714C177.11 243.094 178.579 242.815 180.118 241.876C180.388 241.719 180.737 241.795 180.933 242.065C181.129 242.336 181.016 242.686 180.747 242.881C179.592 243.625 178.318 244.019 176.964 244.065Z" fill="black"/>
<path d="M173.795 226.96C173.64 226.961 173.524 226.923 173.407 226.807C167.826 221.861 161.707 226.284 161.63 226.323C161.36 226.48 161.011 226.404 160.815 226.133C160.658 225.9 160.694 225.55 160.925 225.394C161.002 225.355 167.852 220.384 174.135 225.948C174.369 226.141 174.411 226.529 174.181 226.764C174.104 226.881 173.95 226.959 173.795 226.96Z" fill="black"/>
<path d="M183.332 226.313C183.022 226.315 182.748 226.044 182.746 225.733C182.744 225.538 182.858 225.343 183.051 225.226C183.398 225.03 191.723 220.281 197.918 224.567C198.19 224.721 198.271 225.109 198.119 225.382C197.966 225.655 197.579 225.735 197.307 225.581C197.268 225.581 197.268 225.542 197.229 225.542C191.618 221.643 183.679 226.195 183.602 226.234C183.525 226.273 183.409 226.313 183.332 226.313Z" fill="black"/>
<path d="M162.419 214.537C162.264 214.538 162.148 214.5 162.031 214.423C161.797 214.23 161.755 213.842 161.946 213.609C162.176 213.336 167.271 207.294 173.364 209.164C173.674 209.24 173.871 209.55 173.757 209.861C173.644 210.172 173.375 210.367 173.064 210.252L173.025 210.253C167.67 208.612 162.881 214.263 162.843 214.341C162.767 214.458 162.612 214.536 162.419 214.537Z" fill="black"/>
<path d="M193.326 213.783C193.209 213.783 193.054 213.745 192.976 213.668C187.986 209.809 183.557 212.551 183.518 212.551C183.249 212.747 182.899 212.671 182.703 212.4C182.507 212.129 182.582 211.779 182.851 211.583L182.89 211.544C182.928 211.505 188.012 208.371 193.665 212.732C193.938 212.925 193.98 213.313 193.788 213.547C193.673 213.664 193.519 213.782 193.326 213.783Z" fill="black"/>
<path d="M177.169 262.407C177.169 262.407 172.79 269.837 164.184 266.663C155.578 263.49 148.651 257.903 147.739 250.849C146.827 243.796 150.228 239.474 153.885 237.942C157.543 236.411 160.923 238.526 161.972 243.523C161.972 243.523 168.76 242.091 170.074 250.965C170.074 250.965 181.026 252.769 174.367 260.134L177.169 262.407Z" fill="#FFCDB2"/>
<path d="M156.158 237.426C158.863 237.412 161.123 239.572 161.969 243.523C162.316 243.443 162.625 243.442 162.973 243.44C164.905 243.43 169.085 244.222 170.11 250.965C170.11 250.965 181.062 252.769 174.403 260.134L177.205 262.368C177.205 262.368 174.235 267.386 168.4 267.417C166.97 267.424 165.538 267.16 164.22 266.624C155.652 263.45 148.686 257.864 147.774 250.81C146.862 243.757 150.263 239.435 153.921 237.903C154.613 237.589 155.385 237.43 156.158 237.426ZM156.148 236.263C155.22 236.267 154.294 236.466 153.409 236.859C149.598 238.469 145.543 243.143 146.578 251.011C147.035 254.654 148.958 258.017 152.308 261.064C155.229 263.763 159.23 266.069 163.804 267.751C165.278 268.325 166.826 268.589 168.41 268.619C174.825 268.586 178.062 263.217 178.177 263.022L178.671 262.167L177.893 261.511L176.025 260.009C177.553 257.984 178.039 256.12 177.444 254.417C176.453 251.591 172.811 250.408 171.107 249.99C169.732 243.017 165.011 242.266 162.963 242.277L162.847 242.277C161.77 238.521 159.239 236.246 156.148 236.263Z" fill="#1D1D1B"/>
<path d="M155.356 255.505C155.047 255.507 154.814 255.275 154.773 254.965C154.688 249.693 157.655 244.831 162.381 242.518C162.65 242.362 162.998 242.476 163.155 242.786C163.312 243.095 163.199 243.406 162.892 243.563C155.439 247.401 155.929 254.804 155.929 254.882C155.971 255.192 155.703 255.464 155.395 255.505L155.356 255.505Z" fill="#1D1D1B"/>
<path d="M162.851 259.724C162.774 259.724 162.696 259.686 162.619 259.687C162.347 259.572 162.19 259.223 162.342 258.912C162.455 258.64 165.564 251.915 170.181 249.836C170.45 249.68 170.799 249.833 170.956 250.103C171.113 250.374 170.961 250.724 170.692 250.88C170.692 250.88 170.692 250.88 170.654 250.881C166.421 252.803 163.427 259.333 163.389 259.411C163.275 259.606 163.044 259.723 162.851 259.724Z" fill="#1D1D1B"/>
<path d="M170.394 265.144C170.085 265.146 169.812 264.876 169.81 264.565C169.807 264.294 169.96 264.06 170.23 264.02C172.812 263.231 174.596 259.538 174.634 259.499C174.787 259.226 175.133 259.07 175.405 259.223C175.676 259.338 175.834 259.686 175.682 259.997C175.607 260.192 173.671 264.235 170.588 265.143C170.472 265.144 170.433 265.144 170.394 265.144Z" fill="#1D1D1B"/>
<path d="M150.55 254.876C150.319 254.877 150.125 254.762 150.046 254.568C149.929 254.375 147.696 250.084 149.081 245.463C149.942 242.59 152.039 240.214 155.299 238.491C155.567 238.335 155.915 238.449 156.071 238.72C156.227 238.99 156.115 239.34 155.847 239.496C152.856 241.063 150.948 243.205 150.162 245.768C148.889 249.922 151.004 253.943 151.043 253.981C151.199 254.252 151.087 254.601 150.818 254.758C150.742 254.836 150.665 254.875 150.55 254.876Z" fill="white"/>
<path d="M178.574 262.38C178.574 262.38 183.121 269.763 191.632 266.5C200.143 263.236 207.01 257.577 207.798 250.515C208.587 243.453 205.11 239.166 201.426 237.673C197.742 236.18 194.399 238.33 193.438 243.338C193.438 243.338 186.625 241.978 185.428 250.865C185.428 250.865 174.51 252.783 181.297 260.077L178.574 262.38Z" fill="#FFCDB2"/>
<path d="M199.138 237.181C199.91 237.177 200.685 237.328 201.422 237.673C205.106 239.205 208.583 243.492 207.795 250.515C207.006 257.539 200.139 263.237 191.628 266.5C190.318 267.011 188.891 267.29 187.462 267.336C181.627 267.367 178.569 262.38 178.569 262.38L181.331 260.116C174.544 252.822 185.463 250.904 185.463 250.904C186.369 244.151 190.497 243.315 192.468 243.305C192.815 243.303 193.125 243.34 193.473 243.377C194.172 239.418 196.433 237.195 199.138 237.181ZM199.127 236.018C196.036 236.034 193.545 238.335 192.534 242.102L192.418 242.103C190.37 242.113 185.663 242.914 184.41 249.901C182.714 250.336 179.092 251.557 178.151 254.393C177.587 256.103 178.105 257.961 179.668 259.97L177.827 261.492L177.06 262.155L177.57 263.006C177.688 263.238 181.057 268.533 187.433 268.5C189.017 268.491 190.56 268.173 192.024 267.584C196.568 265.854 200.489 263.506 203.402 260.776C206.66 257.696 208.562 254.312 208.955 250.664C209.813 242.787 205.677 238.155 201.837 236.585C200.984 236.241 200.055 236.013 199.127 236.018Z" fill="#1D1D1B"/>
<path d="M200.278 255.245C199.93 255.208 199.658 254.938 199.694 254.628C199.691 254.318 200.014 247.144 192.495 243.345C192.223 243.191 192.105 242.843 192.218 242.571C192.37 242.298 192.716 242.18 192.987 242.295C197.753 244.558 200.806 249.388 200.813 254.661C200.816 255.01 200.587 255.244 200.278 255.245Z" fill="#1D1D1B"/>
<path d="M192.822 259.553C192.59 259.554 192.396 259.439 192.278 259.206C192.238 259.129 189.13 252.631 184.864 250.753C184.554 250.638 184.435 250.29 184.548 249.979C184.662 249.668 185.008 249.55 185.318 249.665C189.972 251.734 193.159 258.387 193.316 258.658C193.473 258.929 193.321 259.279 193.052 259.435C192.976 259.552 192.899 259.552 192.822 259.553Z" fill="#1D1D1B"/>
<path d="M185.339 265.059C185.301 265.059 185.223 265.06 185.184 265.021C182.085 264.145 180.079 260.084 180 259.929C179.881 259.62 180.033 259.309 180.303 259.191C180.572 259.073 180.882 259.188 181.039 259.459C181.04 259.497 182.888 263.211 185.523 263.934C185.832 264.01 186.029 264.358 185.916 264.668C185.84 264.901 185.61 265.058 185.339 265.059Z" fill="#1D1D1B"/>
<path d="M205.088 254.557C205.011 254.557 204.895 254.519 204.818 254.481C204.547 254.327 204.428 253.979 204.58 253.707C204.579 253.668 206.624 249.625 205.317 245.484C204.486 242.93 202.541 240.847 199.523 239.273C199.252 239.12 199.133 238.771 199.323 238.46C199.475 238.188 199.782 238.109 200.053 238.224C203.342 239.912 205.481 242.227 206.392 245.13C207.858 249.735 205.7 254.05 205.586 254.244C205.472 254.439 205.281 254.556 205.088 254.557Z" fill="white"/>
<path d="M137.306 248.83C138.523 248.824 139.5 247.829 139.49 246.608C139.479 245.388 138.484 244.403 137.268 244.41C136.051 244.416 135.074 245.411 135.084 246.631C135.095 247.852 136.09 248.837 137.306 248.83Z" fill="#DB4444"/>
<path d="M117.518 270.882C118.735 270.875 119.712 269.88 119.701 268.66C119.691 267.439 118.696 266.454 117.479 266.461C116.263 266.467 115.285 267.462 115.296 268.683C115.307 269.903 116.302 270.888 117.518 270.882Z" fill="#DB4444"/>
<path d="M124.207 307.659C125.423 307.653 126.401 306.658 126.39 305.437C126.379 304.217 125.384 303.232 124.168 303.239C122.951 303.245 121.974 304.24 121.985 305.461C121.995 306.681 122.99 307.666 124.207 307.659Z" fill="#DB4444"/>
<path d="M147.132 311.516C148.349 311.51 149.326 310.515 149.315 309.294C149.305 308.074 148.31 307.089 147.093 307.096C145.877 307.102 144.899 308.097 144.91 309.317C144.921 310.538 145.916 311.523 147.132 311.516Z" fill="#DB4444"/>
<path d="M142.956 280.188C144.172 280.182 145.15 279.187 145.139 277.966C145.128 276.746 144.134 275.761 142.917 275.768C141.701 275.774 140.723 276.769 140.734 277.99C140.744 279.21 141.739 280.195 142.956 280.188Z" fill="#DB4444"/>
<path d="M190.343 292.35C191.559 292.343 192.537 291.348 192.526 290.128C192.516 288.907 191.521 287.922 190.304 287.929C189.088 287.935 188.11 288.93 188.121 290.151C188.132 291.371 189.126 292.356 190.343 292.35Z" fill="#DB4444"/>
<path d="M214.708 289.726C215.924 289.72 216.902 288.725 216.891 287.504C216.88 286.283 215.885 285.299 214.669 285.305C213.452 285.312 212.475 286.306 212.485 287.527C212.496 288.748 213.491 289.732 214.708 289.726Z" fill="#DB4444"/>
<path d="M234.266 313.988C235.483 313.981 236.46 312.987 236.45 311.766C236.439 310.545 235.444 309.561 234.228 309.567C233.011 309.573 232.034 310.568 232.044 311.789C232.055 313.01 233.05 313.994 234.266 313.988Z" fill="#DB4444"/>
<path d="M233.52 273.183C234.737 273.177 235.714 272.182 235.703 270.961C235.693 269.74 234.698 268.756 233.481 268.762C232.265 268.769 231.287 269.764 231.298 270.984C231.309 272.205 232.304 273.189 233.52 273.183Z" fill="#DB4444"/>
<path d="M122.856 322.327C122.741 322.328 122.625 322.29 122.509 322.251C112 318.314 105.841 309.856 104.735 297.805C104.261 292.109 104.75 286.33 106.242 280.818C106.392 280.313 106.967 280.039 107.469 280.191C107.971 280.343 108.245 280.885 108.095 281.351C106.717 286.669 106.226 292.176 106.659 297.679C107.721 309.071 113.295 316.717 123.186 320.426C123.688 320.617 123.924 321.159 123.736 321.664C123.586 322.091 123.241 322.325 122.856 322.327Z" fill="white"/>
<path d="M229.263 323.938C228.724 323.98 228.257 323.594 228.214 323.052C228.171 322.509 228.552 322.042 229.092 322.001C236.254 320.645 241.47 317.361 244.626 312.226C250.862 302.036 246.92 287.867 246.88 287.75C246.76 287.247 247.064 286.703 247.603 286.584C248.103 286.465 248.607 286.733 248.766 287.237C248.925 287.856 252.987 302.374 246.332 313.264C242.91 318.865 237.234 322.462 229.533 323.898C229.379 323.938 229.34 323.938 229.263 323.938Z" fill="white"/>
<path d="M59.5114 307.622C59.4707 307.39 53.3972 284.964 50.9245 254.296C49.4519 236.268 49.5322 218.968 51.0922 202.863C53.0422 182.723 57.3665 164.392 63.915 148.378C70.1603 133.063 83.0078 121.088 102.073 112.727C119.136 105.23 140.365 101.124 163.561 100.847L164.991 100.84C191.359 100.702 217.925 105.528 239.964 114.412C264.37 124.252 281.156 138.206 288.492 154.652C295 169.241 299.324 186.246 301.386 205.279C303.027 220.475 303.21 236.998 301.932 254.342C299.755 283.871 294.071 305.893 293.996 306.126L292.872 305.821C292.947 305.588 298.632 283.644 300.771 254.232C302.737 227.109 302.045 187.899 287.453 155.162C280.235 138.986 263.683 125.264 239.549 115.539C217.238 106.54 190.247 101.716 163.571 102.05C140.53 102.325 119.416 106.392 102.547 113.811C83.7509 122.054 71.1337 133.834 64.963 148.838C50.1996 184.832 49.7871 225.987 52.0837 254.212C54.5557 284.802 60.5896 307.112 60.6689 307.345L59.5114 307.622Z" fill="black"/>
<path d="M287.462 114.16C281.854 101.713 228.34 93.2812 163.489 95.0126C113.196 96.3585 70.1177 103.458 50.9883 112.496C49.4377 112.309 47.888 112.239 46.3394 112.286C28.6847 112.765 14.7492 126.789 15.2831 143.654C15.8171 160.519 30.5319 173.775 48.1866 173.296C60.7308 172.96 71.3955 165.792 76.3027 155.623C81.8489 165.506 92.9043 172.095 105.449 171.759C119.348 171.377 130.889 162.612 134.968 150.698C139.755 162.372 151.792 170.511 165.691 170.129C178.468 169.791 189.285 162.312 194.112 151.872C198.518 164.208 210.948 172.967 225.35 172.544C238.127 172.206 248.943 164.727 253.771 154.287C258.177 166.623 270.606 175.343 285.009 174.959C302.663 174.48 316.56 160.456 316.065 143.59C315.582 128.202 303.159 115.751 287.462 114.16Z" fill="#DB4444"/>
<path d="M284.241 175.582C277.504 175.656 270.903 173.669 265.294 169.889C260.113 166.417 256.082 161.502 253.669 155.763C248.376 166.05 237.398 172.83 225.358 173.164C218.389 173.394 211.479 171.408 205.674 167.474C200.494 164.002 196.462 159.087 194.089 153.348C188.795 163.635 177.818 170.415 165.777 170.748C152.575 171.127 140.39 163.727 135.062 152.29C130.401 164.012 118.737 172 105.496 172.379C93.4552 172.712 82.3669 166.784 76.3557 156.866C70.9455 167.076 60.2752 173.582 48.1958 173.916L47.4987 173.92C29.8795 174.01 15.2409 160.599 14.7453 143.696C14.2477 126.559 28.4127 112.223 46.3771 111.742C47.8869 111.696 49.3978 111.766 50.9094 111.914C70.7332 102.601 114.859 95.7292 163.448 94.4308C228.104 92.7004 281.307 100.939 287.846 113.614C303.816 115.398 316.165 128.237 316.647 143.625C316.875 151.98 313.692 160.002 307.779 165.862C301.752 171.917 293.611 175.379 285.054 175.578L284.241 175.582ZM253.837 152.769L254.313 154.127C258.76 166.658 271.106 174.795 284.967 174.413C293.214 174.254 301.085 170.91 306.92 165.05C312.678 159.23 315.71 151.636 315.447 143.67C315.008 128.749 302.934 116.335 287.391 114.744L287.042 114.706L286.923 114.396C281.395 102.143 227.185 93.9099 163.497 95.5965C114.947 96.8947 70.8979 103.727 51.2677 113.039L51.1135 113.117L50.9586 113.118C49.447 112.97 47.9361 112.9 46.3875 112.947C29.0815 113.425 15.3765 127.214 15.907 143.69C16.3968 159.932 30.4889 172.841 47.4886 172.754L48.2243 172.75C60.2263 172.416 70.8182 165.794 75.8394 155.392L76.334 154.379L76.8846 155.347C82.5487 165.423 93.5222 171.507 105.485 171.174C118.726 170.834 130.388 162.535 134.466 150.505L134.956 149.026L135.55 150.461C140.338 162.212 152.487 169.884 165.728 169.544C177.846 169.21 188.783 162.197 193.609 151.601L194.217 150.315L194.694 151.673C199.14 164.204 211.487 172.341 225.347 171.959C237.427 171.625 248.402 164.612 253.228 154.016L253.837 152.769Z" fill="#1D1D1B"/>
<path d="M56.0688 58.8443C56.0688 58.8443 183.555 44.9752 279.71 57.7006L279.893 78.8081L309.223 124.879C309.223 124.879 164.917 97.2392 19.7869 126.359L58.54 80.29L56.0688 58.8443Z" fill="#DB4444"/>
<path d="M18.2825 127.259L57.9165 80.0988L55.4035 58.3043L55.9841 58.2624C56.2935 58.222 88.3682 54.7537 131.765 52.8991C171.833 51.1781 230.034 50.5305 279.739 57.1178L280.243 57.1929L280.43 78.6495L310.427 125.726L309.108 125.461C308.758 125.385 272.45 118.496 218.862 115.271C169.459 112.298 94.79 111.902 19.9063 126.94L18.2825 127.259ZM159.353 112.466C178.948 112.366 198.897 112.924 218.969 114.143C266.899 117.047 301.03 122.859 308.011 124.106L279.31 79.0051L279.129 58.2093C229.618 51.6988 171.727 52.3837 131.853 54.0648C91.6689 55.7864 61.2174 58.8576 56.6906 59.3472L59.1588 80.4423L59.0056 80.6374L21.3263 125.456C53.9945 118.991 89.278 114.885 126.209 113.257C137.126 112.774 148.161 112.523 159.353 112.466Z" fill="#1D1D1B"/>
<path d="M89.6002 75.1992L75.831 117.736C97.0235 115.375 117.761 114.026 137.617 113.418L134.659 71.3568L133.537 53.5626C116.774 54.2708 101.712 55.2028 89.4326 56.0815L89.6002 75.1992Z" fill="white"/>
<path d="M75.0226 118.399L89.0556 75.0859L88.8843 55.5416L89.4249 55.5C104.099 54.4149 118.929 53.5617 133.53 52.9811L134.109 52.9393L135.236 71.3152L138.238 113.958L137.619 113.961C116.528 114.614 95.7517 116.042 75.9103 118.278L75.0226 118.399ZM90.0143 56.6215L90.1778 75.274L90.1399 75.3517L76.6335 117.034C96.0506 114.877 116.363 113.491 136.953 112.84L134.039 71.3991L132.96 54.1475C118.746 54.7648 104.302 55.5772 90.0143 56.6215Z" fill="#1D1E1B"/>
<path d="M250.856 74.2751L250.724 54.731C234.408 53.4591 217.672 52.7711 201.172 52.5085L199.351 113.634C223.159 114.557 244.27 116.308 261.48 118.157L250.856 74.2751Z" fill="white"/>
<path d="M262.258 118.812L261.446 118.739C241.027 116.557 220.15 115.038 199.356 114.216L198.776 114.18L200.625 51.8909L201.205 51.8879C218.787 52.1448 235.485 52.9106 250.795 54.1101L251.337 54.1461L251.473 74.1556L262.258 118.812ZM200.002 113.049C220.371 113.873 240.785 115.357 260.778 117.462L250.316 74.3168L250.315 74.2392L250.187 55.2379C235.224 54.0753 218.952 53.3461 201.795 53.0869L200.002 113.049Z" fill="#1D1E1B"/>
<path d="M58.325 80.6337L58.0832 79.4792C58.3541 79.4381 87.023 73.8883 128.501 71.0296C166.804 68.3847 224.186 67.5257 280.075 78.4685L279.852 79.6251C224.079 68.7216 166.814 69.5801 128.549 72.185C87.1877 75.083 58.596 80.5926 58.325 80.6337Z" fill="#1D1D1B"/>
<path d="M8.31231 160.263C8.12077 160.264 7.92821 160.148 7.81194 159.994C0.198396 147.94 1.40966 137.429 3.76553 130.789C5.29848 126.44 7.67759 122.473 10.7896 119.085C11.0174 118.851 11.3622 118.849 11.5941 119.08C11.826 119.312 11.829 119.661 11.6012 119.894C11.6012 119.894 11.6012 119.894 11.5632 119.933C8.56509 123.205 6.26159 127.055 4.80391 131.249C1.51354 140.569 2.86021 150.058 8.76461 159.407C8.9202 159.678 8.84661 160.027 8.58013 160.222C8.54216 160.261 8.42724 160.262 8.31231 160.263Z" fill="#1D1D1B"/>
<path d="M324.151 164.451C324.036 164.451 323.959 164.413 323.882 164.375C323.613 164.221 323.495 163.873 323.645 163.601C332.125 147.896 330.209 134.534 327.111 126.1C323.738 116.931 318.291 111.417 318.252 111.379C318.02 111.147 318.017 110.798 318.245 110.565C318.473 110.331 318.817 110.329 319.049 110.56C319.281 110.792 324.728 116.267 328.18 125.668C331.395 134.334 333.352 148.045 324.684 164.177C324.571 164.332 324.38 164.45 324.151 164.451Z" fill="#1D1D1B"/>
<path d="M45.3012 169.474C45.1853 169.475 45.0695 169.475 44.992 169.437C33.7236 165.502 26.2995 159.725 22.8368 152.26C20.4372 147.154 20.0771 141.301 21.8059 135.941C21.9945 135.436 22.5718 135.239 23.0754 135.431C23.5403 135.622 23.7767 136.164 23.6263 136.63C22.125 141.523 22.4418 146.834 24.6058 151.475C27.8324 158.438 34.906 163.868 45.6323 167.611C46.1358 167.802 46.4108 168.344 46.2222 168.849C46.0712 169.237 45.6872 169.472 45.3012 169.474Z" fill="white"/>
<path d="M220.036 168.447C219.959 168.447 219.881 168.448 219.804 168.409C207.377 165.295 201.285 157.804 198.376 152.08C196.451 148.406 195.335 144.379 194.989 140.232C194.984 139.689 195.406 139.26 195.908 139.257L195.946 139.257C196.487 139.254 196.916 139.679 196.92 140.183C197.225 144.059 198.339 147.814 200.108 151.295C204.077 159.069 210.844 164.191 220.251 166.546C220.754 166.659 221.068 167.201 220.956 167.705C220.806 168.133 220.422 168.445 220.036 168.447Z" fill="white"/>
<path d="M253.032 109.993C252.61 109.996 252.185 109.688 252.104 109.262L244.949 80.9248C244.83 80.4216 245.132 79.8773 245.63 79.7584C246.128 79.6395 246.668 79.9467 246.787 80.45L253.943 108.787C254.062 109.29 253.76 109.834 253.262 109.953C253.185 109.954 253.109 109.993 253.032 109.993Z" fill="white"/>
<path d="M131.042 102.723C130.515 102.726 130.098 102.302 130.093 101.759L129.921 81.3732C129.916 80.8307 130.326 80.4022 130.853 80.3994C131.379 80.3967 131.797 80.8208 131.801 81.3634L131.974 101.788C131.978 102.292 131.568 102.72 131.042 102.723Z" fill="white"/>
<path d="M70.3038 293.759C70.0406 293.76 69.8512 293.606 69.7737 293.335C62.3399 268.259 61.288 241.716 61.701 223.846C62.1393 204.504 64.3561 190.888 64.3927 190.772C64.4277 190.461 64.7266 190.227 65.0658 190.303C65.367 190.34 65.5953 190.649 65.523 190.998C65.4148 191.541 56.7675 245.344 70.8994 293.02C70.9772 293.329 70.8294 293.64 70.5295 293.758C70.4543 293.758 70.3791 293.759 70.3038 293.759Z" fill="#1D1D1B"/>
<path d="M286.759 292.093C286.721 292.093 286.684 292.094 286.609 292.094C286.309 292.018 286.12 291.709 286.192 291.399C292.504 264.236 291.955 238.852 290.36 222.389C288.641 204.531 285.406 192.998 285.367 192.882C285.29 192.572 285.474 192.261 285.772 192.182C286.033 192.103 286.334 192.295 286.411 192.566C286.449 192.682 289.723 204.331 291.443 222.306C293.039 238.885 293.589 264.346 287.241 291.703C287.243 291.936 287.02 292.092 286.759 292.093Z" fill="#1D1D1B"/>
<path d="M269.149 35.6785C268.839 35.6801 268.566 35.4488 268.563 35.0996C268.56 34.7505 268.79 34.5165 269.138 34.5147C285.297 33.3442 298.292 24.276 306.312 16.8631C311.53 12.1028 316.164 6.72495 320.097 0.846368C320.249 0.574007 320.635 0.494404 320.907 0.648167C321.179 0.80193 321.26 1.18946 321.108 1.46182C317.098 7.4184 312.427 12.8741 307.131 17.7123C298.958 25.2424 285.694 34.506 269.226 35.6781L269.149 35.6785Z" fill="black"/>
<path d="M288.579 48.2768C287.612 48.2818 286.644 48.2481 285.637 48.1369C285.327 48.0997 285.093 47.8293 285.09 47.5189C285.126 47.2083 285.395 46.9741 285.704 46.9725C304.177 48.6613 313.707 32.2373 313.822 32.0815C313.974 31.8091 314.321 31.6521 314.593 31.8059C314.865 31.9597 314.984 32.3083 314.871 32.5805C314.871 32.6193 314.832 32.6195 314.833 32.6583C314.795 32.8137 305.914 48.1867 288.579 48.2768Z" fill="black"/>
</svg>
