<svg width="137" height="79" viewBox="0 0 137 79" fill="none" xmlns="http://www.w3.org/2000/svg">
<path fill-rule="evenodd" clip-rule="evenodd" d="M67.245 78.647C77.2225 78.647 86.3283 74.9147 93.2424 68.77C97.6172 74.7575 104.692 78.647 112.676 78.647C125.959 78.647 136.728 67.8786 136.728 54.595C136.728 41.3115 125.959 30.543 112.676 30.543C110.213 30.543 107.837 30.9132 105.599 31.6008C101.947 13.7631 86.1627 0.34552 67.245 0.34552C48.538 0.34552 32.8955 13.4658 29.0173 31.0063C27.4905 30.7024 25.9117 30.543 24.2957 30.543C11.0121 30.543 0.243652 41.3115 0.243652 54.595C0.243652 67.8786 11.0121 78.647 24.2957 78.647C31.7033 78.647 38.3287 75.2983 42.7408 70.0321C49.4488 75.422 57.9703 78.647 67.245 78.647Z" fill="white"/>
</svg>
